<mxfile host="app.diagrams.net" agent="Mozilla/5.0 (Macintosh; Intel Mac OS X 10_15_7) AppleWebKit/537.36 (KHTML, like Gecko) Chrome/131.0.0.0 Safari/537.36" version="26.0.6">
  <diagram name="Page-1" id="WDgxBWxF3H831WsXETDw">
    <mxGraphModel dx="3544" dy="1087" grid="1" gridSize="10" guides="1" tooltips="1" connect="1" arrows="1" fold="1" page="1" pageScale="1" pageWidth="850" pageHeight="1100" math="0" shadow="0">
      <root>
        <mxCell id="0" />
        <mxCell id="1" parent="0" />
        <mxCell id="XHiVZ7eyR1w0DhLyfMZA-3" style="edgeStyle=orthogonalEdgeStyle;rounded=0;orthogonalLoop=1;jettySize=auto;html=1;entryX=0;entryY=0.5;entryDx=0;entryDy=0;" parent="1" source="XHiVZ7eyR1w0DhLyfMZA-1" target="XHiVZ7eyR1w0DhLyfMZA-2" edge="1">
          <mxGeometry relative="1" as="geometry" />
        </mxCell>
        <mxCell id="XHiVZ7eyR1w0DhLyfMZA-19" value="PR /MR" style="edgeLabel;html=1;align=center;verticalAlign=middle;resizable=0;points=[];" parent="XHiVZ7eyR1w0DhLyfMZA-3" vertex="1" connectable="0">
          <mxGeometry x="-0.3222" y="-2" relative="1" as="geometry">
            <mxPoint y="1" as="offset" />
          </mxGeometry>
        </mxCell>
        <mxCell id="XHiVZ7eyR1w0DhLyfMZA-1" value="GitRepo" style="rounded=0;whiteSpace=wrap;html=1;" parent="1" vertex="1">
          <mxGeometry x="-200" y="250" width="120" height="60" as="geometry" />
        </mxCell>
        <mxCell id="XHiVZ7eyR1w0DhLyfMZA-5" style="edgeStyle=orthogonalEdgeStyle;rounded=0;orthogonalLoop=1;jettySize=auto;html=1;entryX=0;entryY=0.5;entryDx=0;entryDy=0;" parent="1" source="XHiVZ7eyR1w0DhLyfMZA-2" target="XHiVZ7eyR1w0DhLyfMZA-4" edge="1">
          <mxGeometry relative="1" as="geometry" />
        </mxCell>
        <mxCell id="XHiVZ7eyR1w0DhLyfMZA-8" style="edgeStyle=orthogonalEdgeStyle;rounded=0;orthogonalLoop=1;jettySize=auto;html=1;entryX=0;entryY=0.5;entryDx=0;entryDy=0;" parent="1" source="XHiVZ7eyR1w0DhLyfMZA-2" target="XHiVZ7eyR1w0DhLyfMZA-7" edge="1">
          <mxGeometry relative="1" as="geometry" />
        </mxCell>
        <mxCell id="XHiVZ7eyR1w0DhLyfMZA-10" style="edgeStyle=orthogonalEdgeStyle;rounded=0;orthogonalLoop=1;jettySize=auto;html=1;entryX=0;entryY=0.5;entryDx=0;entryDy=0;" parent="1" source="XHiVZ7eyR1w0DhLyfMZA-2" target="XHiVZ7eyR1w0DhLyfMZA-9" edge="1">
          <mxGeometry relative="1" as="geometry">
            <Array as="points">
              <mxPoint x="560" y="280" />
            </Array>
          </mxGeometry>
        </mxCell>
        <mxCell id="XHiVZ7eyR1w0DhLyfMZA-12" style="edgeStyle=orthogonalEdgeStyle;rounded=0;orthogonalLoop=1;jettySize=auto;html=1;entryX=0;entryY=0.5;entryDx=0;entryDy=0;" parent="1" source="XHiVZ7eyR1w0DhLyfMZA-2" target="XHiVZ7eyR1w0DhLyfMZA-11" edge="1">
          <mxGeometry relative="1" as="geometry">
            <Array as="points">
              <mxPoint x="430" y="280" />
              <mxPoint x="430" y="470" />
            </Array>
          </mxGeometry>
        </mxCell>
        <mxCell id="Z7QtTftO9WlhnwjgHr6w-9" style="edgeStyle=orthogonalEdgeStyle;rounded=0;orthogonalLoop=1;jettySize=auto;html=1;exitX=0.5;exitY=1;exitDx=0;exitDy=0;" edge="1" parent="1" source="XHiVZ7eyR1w0DhLyfMZA-2">
          <mxGeometry relative="1" as="geometry">
            <mxPoint x="90" y="330" as="sourcePoint" />
            <mxPoint x="550" y="780" as="targetPoint" />
            <Array as="points">
              <mxPoint x="80" y="330" />
              <mxPoint x="30" y="330" />
              <mxPoint x="30" y="780" />
            </Array>
          </mxGeometry>
        </mxCell>
        <mxCell id="XHiVZ7eyR1w0DhLyfMZA-2" value="GitAction" style="rounded=0;whiteSpace=wrap;html=1;" parent="1" vertex="1">
          <mxGeometry x="20" y="250" width="120" height="60" as="geometry" />
        </mxCell>
        <mxCell id="XHiVZ7eyR1w0DhLyfMZA-4" value="Validate contract (data or Transform)" style="rounded=0;whiteSpace=wrap;html=1;" parent="1" vertex="1">
          <mxGeometry x="460" y="40" width="120" height="80" as="geometry" />
        </mxCell>
        <mxCell id="Z7QtTftO9WlhnwjgHr6w-6" style="edgeStyle=orthogonalEdgeStyle;rounded=0;orthogonalLoop=1;jettySize=auto;html=1;" edge="1" parent="1" source="XHiVZ7eyR1w0DhLyfMZA-7" target="XHiVZ7eyR1w0DhLyfMZA-17">
          <mxGeometry relative="1" as="geometry" />
        </mxCell>
        <mxCell id="Z7QtTftO9WlhnwjgHr6w-7" value="Use Configs" style="edgeLabel;html=1;align=center;verticalAlign=middle;resizable=0;points=[];" vertex="1" connectable="0" parent="Z7QtTftO9WlhnwjgHr6w-6">
          <mxGeometry x="-0.3564" relative="1" as="geometry">
            <mxPoint as="offset" />
          </mxGeometry>
        </mxCell>
        <mxCell id="XHiVZ7eyR1w0DhLyfMZA-7" value="Databricks Repo Sync" style="rounded=0;whiteSpace=wrap;html=1;" parent="1" vertex="1">
          <mxGeometry x="460" y="170" width="120" height="60" as="geometry" />
        </mxCell>
        <mxCell id="XHiVZ7eyR1w0DhLyfMZA-14" style="edgeStyle=orthogonalEdgeStyle;rounded=0;orthogonalLoop=1;jettySize=auto;html=1;entryX=0;entryY=0.25;entryDx=0;entryDy=0;" parent="1" source="XHiVZ7eyR1w0DhLyfMZA-9" target="XHiVZ7eyR1w0DhLyfMZA-13" edge="1">
          <mxGeometry relative="1" as="geometry" />
        </mxCell>
        <mxCell id="XHiVZ7eyR1w0DhLyfMZA-9" value="databricks jobs Api 2.0 create workflow" style="rounded=1;whiteSpace=wrap;html=1;" parent="1" vertex="1">
          <mxGeometry x="560" y="250" width="120" height="60" as="geometry" />
        </mxCell>
        <mxCell id="XHiVZ7eyR1w0DhLyfMZA-21" style="edgeStyle=orthogonalEdgeStyle;rounded=0;orthogonalLoop=1;jettySize=auto;html=1;entryX=0.5;entryY=1;entryDx=0;entryDy=0;" parent="1" source="XHiVZ7eyR1w0DhLyfMZA-11" target="XHiVZ7eyR1w0DhLyfMZA-15" edge="1">
          <mxGeometry relative="1" as="geometry">
            <Array as="points">
              <mxPoint x="910" y="440" />
            </Array>
          </mxGeometry>
        </mxCell>
        <mxCell id="XHiVZ7eyR1w0DhLyfMZA-11" value="Airflow DAG create and move to S3" style="rounded=0;whiteSpace=wrap;html=1;" parent="1" vertex="1">
          <mxGeometry x="560" y="440" width="120" height="60" as="geometry" />
        </mxCell>
        <mxCell id="XHiVZ7eyR1w0DhLyfMZA-16" style="edgeStyle=orthogonalEdgeStyle;rounded=0;orthogonalLoop=1;jettySize=auto;html=1;entryX=0;entryY=0.25;entryDx=0;entryDy=0;" parent="1" source="XHiVZ7eyR1w0DhLyfMZA-13" target="XHiVZ7eyR1w0DhLyfMZA-15" edge="1">
          <mxGeometry relative="1" as="geometry" />
        </mxCell>
        <mxCell id="XHiVZ7eyR1w0DhLyfMZA-18" style="edgeStyle=orthogonalEdgeStyle;rounded=0;orthogonalLoop=1;jettySize=auto;html=1;entryX=0;entryY=0.75;entryDx=0;entryDy=0;" parent="1" source="XHiVZ7eyR1w0DhLyfMZA-13" target="XHiVZ7eyR1w0DhLyfMZA-17" edge="1">
          <mxGeometry relative="1" as="geometry" />
        </mxCell>
        <mxCell id="XHiVZ7eyR1w0DhLyfMZA-13" value="Create workflow" style="rounded=0;whiteSpace=wrap;html=1;" parent="1" vertex="1">
          <mxGeometry x="740" y="290" width="120" height="60" as="geometry" />
        </mxCell>
        <mxCell id="Z7QtTftO9WlhnwjgHr6w-4" style="edgeStyle=orthogonalEdgeStyle;rounded=0;orthogonalLoop=1;jettySize=auto;html=1;" edge="1" parent="1" source="XHiVZ7eyR1w0DhLyfMZA-15" target="Z7QtTftO9WlhnwjgHr6w-2">
          <mxGeometry relative="1" as="geometry">
            <Array as="points">
              <mxPoint x="910" y="660" />
              <mxPoint x="150" y="660" />
            </Array>
          </mxGeometry>
        </mxCell>
        <mxCell id="Z7QtTftO9WlhnwjgHr6w-5" value="Read COnfigs" style="edgeLabel;html=1;align=center;verticalAlign=middle;resizable=0;points=[];" vertex="1" connectable="0" parent="Z7QtTftO9WlhnwjgHr6w-4">
          <mxGeometry x="-0.0133" y="-1" relative="1" as="geometry">
            <mxPoint as="offset" />
          </mxGeometry>
        </mxCell>
        <mxCell id="XHiVZ7eyR1w0DhLyfMZA-15" value="Create job with Jar and configs and Repo link;&amp;nbsp; Meta data will be updated&amp;nbsp;" style="rounded=0;whiteSpace=wrap;html=1;" parent="1" vertex="1">
          <mxGeometry x="850" y="213" width="120" height="60" as="geometry" />
        </mxCell>
        <mxCell id="XHiVZ7eyR1w0DhLyfMZA-17" value="Create job with dbt and configs and repo link" style="rounded=0;whiteSpace=wrap;html=1;" parent="1" vertex="1">
          <mxGeometry x="940" y="330" width="120" height="60" as="geometry" />
        </mxCell>
        <mxCell id="XHiVZ7eyR1w0DhLyfMZA-20" style="edgeStyle=orthogonalEdgeStyle;rounded=0;orthogonalLoop=1;jettySize=auto;html=1;entryX=0.425;entryY=1.058;entryDx=0;entryDy=0;entryPerimeter=0;" parent="1" source="XHiVZ7eyR1w0DhLyfMZA-11" target="XHiVZ7eyR1w0DhLyfMZA-17" edge="1">
          <mxGeometry relative="1" as="geometry" />
        </mxCell>
        <mxCell id="XHiVZ7eyR1w0DhLyfMZA-22" value="Run the job" style="edgeLabel;html=1;align=center;verticalAlign=middle;resizable=0;points=[];" parent="XHiVZ7eyR1w0DhLyfMZA-20" vertex="1" connectable="0">
          <mxGeometry x="-0.2569" y="2" relative="1" as="geometry">
            <mxPoint y="1" as="offset" />
          </mxGeometry>
        </mxCell>
        <mxCell id="Z7QtTftO9WlhnwjgHr6w-3" style="edgeStyle=orthogonalEdgeStyle;rounded=0;orthogonalLoop=1;jettySize=auto;html=1;entryX=1;entryY=0.5;entryDx=0;entryDy=0;" edge="1" parent="1" source="Z7QtTftO9WlhnwjgHr6w-1" target="Z7QtTftO9WlhnwjgHr6w-2">
          <mxGeometry relative="1" as="geometry">
            <Array as="points">
              <mxPoint x="380" y="350" />
              <mxPoint x="265" y="350" />
              <mxPoint x="265" y="500" />
            </Array>
          </mxGeometry>
        </mxCell>
        <mxCell id="Z7QtTftO9WlhnwjgHr6w-1" value="Data Contract Service API ; Openshit AWS openshitft&amp;nbsp;&amp;nbsp;" style="rounded=0;whiteSpace=wrap;html=1;" vertex="1" parent="1">
          <mxGeometry x="320" y="250" width="120" height="60" as="geometry" />
        </mxCell>
        <mxCell id="Z7QtTftO9WlhnwjgHr6w-2" value="Data Contrat Storre Dynamo DB" style="rounded=0;whiteSpace=wrap;html=1;" vertex="1" parent="1">
          <mxGeometry x="90" y="470" width="120" height="60" as="geometry" />
        </mxCell>
        <mxCell id="Z7QtTftO9WlhnwjgHr6w-8" value="DB/Snowflake platform" style="rounded=0;whiteSpace=wrap;html=1;" vertex="1" parent="1">
          <mxGeometry x="550" y="750" width="120" height="60" as="geometry" />
        </mxCell>
        <mxCell id="Z7QtTftO9WlhnwjgHr6w-10" value="Customer validation ; dbt validation aganist platform ; dbt docs; github pages. meta data updates; Acces control aganist Platforms; SQL excetion API for SQL" style="rounded=0;whiteSpace=wrap;html=1;" vertex="1" parent="1">
          <mxGeometry x="-30" y="380" width="120" height="60" as="geometry" />
        </mxCell>
        <mxCell id="Z7QtTftO9WlhnwjgHr6w-11" value="Terraform" style="rounded=0;whiteSpace=wrap;html=1;" vertex="1" parent="1">
          <mxGeometry x="-120" y="1340" width="120" height="60" as="geometry" />
        </mxCell>
        <mxCell id="Z7QtTftO9WlhnwjgHr6w-12" value="Databricks" style="rounded=0;whiteSpace=wrap;html=1;" vertex="1" parent="1">
          <mxGeometry x="380" y="1290" width="120" height="60" as="geometry" />
        </mxCell>
        <mxCell id="Z7QtTftO9WlhnwjgHr6w-13" style="edgeStyle=orthogonalEdgeStyle;rounded=0;orthogonalLoop=1;jettySize=auto;html=1;entryX=-0.033;entryY=0.367;entryDx=0;entryDy=0;entryPerimeter=0;" edge="1" parent="1" source="Z7QtTftO9WlhnwjgHr6w-11" target="Z7QtTftO9WlhnwjgHr6w-12">
          <mxGeometry relative="1" as="geometry" />
        </mxCell>
        <mxCell id="Z7QtTftO9WlhnwjgHr6w-14" value="1) Warehouses&amp;nbsp;&lt;div&gt;2) Cluster policies&amp;nbsp;&lt;/div&gt;&lt;div&gt;3) S3&lt;/div&gt;&lt;div&gt;4) Volume setup&lt;/div&gt;&lt;div&gt;5) Access control via terraform&amp;nbsp;&lt;/div&gt;&lt;div&gt;6) IAM instance profiles&amp;nbsp;&lt;/div&gt;&lt;div&gt;7) Workspaces&amp;nbsp;&lt;/div&gt;&lt;div&gt;8)&amp;nbsp;&amp;nbsp;&lt;/div&gt;&lt;div&gt;&lt;br&gt;&lt;/div&gt;" style="rounded=0;whiteSpace=wrap;html=1;" vertex="1" parent="1">
          <mxGeometry x="380" y="1390" width="120" height="190" as="geometry" />
        </mxCell>
        <mxCell id="Z7QtTftO9WlhnwjgHr6w-16" style="edgeStyle=orthogonalEdgeStyle;rounded=0;orthogonalLoop=1;jettySize=auto;html=1;entryX=0.25;entryY=1;entryDx=0;entryDy=0;" edge="1" parent="1" source="Z7QtTftO9WlhnwjgHr6w-15" target="Z7QtTftO9WlhnwjgHr6w-8">
          <mxGeometry relative="1" as="geometry" />
        </mxCell>
        <mxCell id="Z7QtTftO9WlhnwjgHr6w-15" value="ACS from service now after approvals; validation&amp;nbsp;" style="rounded=0;whiteSpace=wrap;html=1;" vertex="1" parent="1">
          <mxGeometry x="-80" y="930" width="120" height="60" as="geometry" />
        </mxCell>
        <mxCell id="Z7QtTftO9WlhnwjgHr6w-17" value="service now" style="rounded=0;whiteSpace=wrap;html=1;" vertex="1" parent="1">
          <mxGeometry x="-390" y="920" width="120" height="60" as="geometry" />
        </mxCell>
        <mxCell id="Z7QtTftO9WlhnwjgHr6w-19" style="edgeStyle=orthogonalEdgeStyle;rounded=0;orthogonalLoop=1;jettySize=auto;html=1;entryX=0.75;entryY=0;entryDx=0;entryDy=0;" edge="1" parent="1" source="Z7QtTftO9WlhnwjgHr6w-18" target="Z7QtTftO9WlhnwjgHr6w-17">
          <mxGeometry relative="1" as="geometry" />
        </mxCell>
        <mxCell id="Z7QtTftO9WlhnwjgHr6w-18" value="Actor" style="shape=umlActor;verticalLabelPosition=bottom;verticalAlign=top;html=1;outlineConnect=0;" vertex="1" parent="1">
          <mxGeometry x="-360" y="790" width="30" height="60" as="geometry" />
        </mxCell>
        <mxCell id="Z7QtTftO9WlhnwjgHr6w-20" style="edgeStyle=orthogonalEdgeStyle;rounded=0;orthogonalLoop=1;jettySize=auto;html=1;entryX=0.008;entryY=0.4;entryDx=0;entryDy=0;entryPerimeter=0;" edge="1" parent="1" source="Z7QtTftO9WlhnwjgHr6w-17" target="Z7QtTftO9WlhnwjgHr6w-15">
          <mxGeometry relative="1" as="geometry" />
        </mxCell>
      </root>
    </mxGraphModel>
  </diagram>
</mxfile>
